# xmcd CD database file
#
# Track frame offsets:
#	150
#	1555
#	23225
#	50770
#	72435
#	107535
#
# Disc length: 1701 seconds
#
# Revision: 13
# Processed by: cddbd v1.5.2PL0 Copyright (c) Steve Scherf et al.
# Submitted via: CDex 1.70beta3
#
DISCID=4206a306
DTITLE=木村まどか／山川琴美／山本杏美／堀江由衣　（明石裕奈、和泉亜子、大河内アキラ、佐々木まき絵） - 9月：運動部仲良し4人組
DYEAR=2004
DGENRE=Vocal
TTITLE0=Yuna，Akira，Makie ＆ Ako’s Voice
TTITLE1=GLOW WILD
TTITLE2=GLOW WILD (Remix ver．)
TTITLE3=GLOW WILD (Instrumental ver．)
TTITLE4=運動部仲良し4人組 ミニドラマ　「大激闘スマッシュピンポン！！」
TTITLE5=キャストフリートーク
EXTD=YEAR: 2004
EXTT0=
EXTT1=
EXTT2=
EXTT3=
EXTT4=
EXTT5=
PLAYORDER=
